<svg xmlns="http://www.w3.org/2000/svg" width="undefined" height="undefined" viewBox="0 0 24 24">
    <path fill="currentColor" d="M6.615 21q-.69 0-1.152-.462Q5 20.075 5 19.385V4.615q0-.69.463-1.152Q5.925 3 6.615 3H18.5q.213 0 .356.144q.144.144.144.357q0 .212-.144.356Q18.713 4 18.5 4h-2v1.154q0 .327-.221.548q-.221.221-.548.221H9.269q-.327 0-.548-.221Q8.5 5.48 8.5 5.154V4H6.615q-.269 0-.442.173T6 4.615v14.77q0 .269.173.442t.442.173h3.897q-.893-.54-1.452-1.395q-.56-.855-.56-2.067v-2.384q0-.666.475-1.141q.474-.475 1.14-.475h4.77q.666 0 1.14.475q.475.475.475 1.14v2.385q0 1.212-.56 2.067q-.56.855-1.452 1.395H18.5q.213 0 .356.144T19 20.5q0 .212-.144.356q-.143.143-.356.143H6.615Zm5.885-1.462q1.25 0 2.125-.875t.875-2.125v-2.384q0-.27-.173-.442q-.173-.174-.442-.174h-4.77q-.269 0-.442.174t-.173.442v2.384q0 1.25.875 2.125t2.125.875Zm0-9.538q.31 0 .54-.23q.23-.23.23-.54q0-.309-.23-.539q-.23-.23-.54-.23q-.31 0-.54.23q-.23.23-.23.54q0 .31.23.54q.23.229.54.229Zm0 3.538Z"/>
</svg>