<svg xmlns="http://www.w3.org/2000/svg" width="undefined" height="undefined" viewBox="0 0 24 24">
    <path fill="currentColor" d="M8 6.77q.31 0 .54-.23q.23-.23.23-.54q0-.31-.23-.54q-.23-.23-.54-.23q-.31 0-.54.23q-.23.23-.23.54q0 .31.23.54q.23.23.54.23Zm3 0q.31 0 .54-.23q.23-.23.23-.54q0-.31-.23-.54q-.23-.23-.54-.23q-.31 0-.54.23q-.23.23-.23.54q0 .31.23.54q.23.23.54.23Zm1 10.73q1.363 0 2.332-.93q.968-.932.968-2.27q0-.629-.212-1.22q-.211-.592-.653-1.034l-1.87-1.87q-.242-.241-.565-.241q-.323 0-.565.242l-1.789 1.788q-.473.473-.722 1.077T8.7 14.3q.05 1.338 1.006 2.27q.956.93 2.294.93Zm0-.92q-.962 0-1.63-.659q-.67-.66-.67-1.621q0-.452.147-.857q.147-.405.48-.737L12 11.033l1.744 1.744q.294.294.425.702t.131.821q0 .962-.67 1.621q-.668.66-1.63.66ZM6.615 21q-.67 0-1.143-.472Q5 20.056 5 19.385V4.615q0-.67.472-1.143Q5.944 3 6.615 3h10.77q.67 0 1.143.472q.472.472.472 1.143v14.77q0 .67-.472 1.143q-.472.472-1.143.472H6.615Zm0-1h10.77q.269 0 .442-.173t.173-.442V4.615q0-.269-.173-.442T17.385 4H6.615q-.269 0-.442.173T6 4.615v14.77q0 .269.173.442t.442.173ZM6 20V4v16Z"/>
</svg>